<?xml version="1.0" encoding="UTF-8" standalone="no"?>
<!-- Created with Inkscape (http://www.inkscape.org/) -->

<svg
   width="50"
   height="50"
   viewBox="0 0 13.229166 13.229167"
   version="1.1"
   id="svg5"
   inkscape:version="1.2.1 (9c6d41e410, 2022-07-14)"
   sodipodi:docname="kara.svg"
   xmlns:inkscape="http://www.inkscape.org/namespaces/inkscape"
   xmlns:sodipodi="http://sodipodi.sourceforge.net/DTD/sodipodi-0.dtd"
   xmlns="http://www.w3.org/2000/svg"
   xmlns:svg="http://www.w3.org/2000/svg">
  <sodipodi:namedview
     id="namedview7"
     pagecolor="#ffffff"
     bordercolor="#666666"
     borderopacity="1.0"
     inkscape:showpageshadow="2"
     inkscape:pageopacity="0.0"
     inkscape:pagecheckerboard="0"
     inkscape:deskcolor="#d1d1d1"
     inkscape:document-units="mm"
     showgrid="true"
     inkscape:zoom="11.602469"
     inkscape:cx="9.3514578"
     inkscape:cy="31.24335"
     inkscape:window-width="1920"
     inkscape:window-height="1001"
     inkscape:window-x="-9"
     inkscape:window-y="-9"
     inkscape:window-maximized="1"
     inkscape:current-layer="layer1">
    <inkscape:grid
       type="xygrid"
       id="grid236" />
  </sodipodi:namedview>
  <defs
     id="defs2" />
  <g
     inkscape:label="Ebene 1"
     inkscape:groupmode="layer"
     id="layer1">
    <ellipse
       style="fill:#ff0000;stroke:#000000;stroke-width:0.529167;stroke-linecap:round;stroke-linejoin:round;stop-color:#000000"
       id="path234"
       cx="6.6145835"
       cy="6.6513939"
       rx="3.9687502"
       ry="3.740977" />
    <path
       style="fill:#000000;stroke:#000000;stroke-width:2;stroke-linecap:round;stroke-linejoin:round;stop-color:#000000;fill-opacity:1"
       d="m 34.346527,29.339114 -1.301837,-4.341688 1.26988,-4.23421 1.269881,-4.23421 0.20462,0.237256 c 1.747796,2.026563 2.805661,4.368497 3.120869,6.909081 0.08246,0.664586 0.08241,2.264569 -9.1e-5,2.928534 -0.312547,2.515496 -1.348073,4.819391 -3.089809,6.874375 l -0.171675,0.202551 z"
       id="path582"
       transform="scale(0.26458333)" />
    <path
       style="fill:none;fill-opacity:1;stroke:#000000;stroke-width:0.529167;stroke-linecap:round;stroke-linejoin:round;stop-color:#000000"
       d="m 10.583333,5.55625 c 0,0 1.097178,0.1207693 1.587501,-0.2645832 C 12.544253,4.9981912 12.7,3.9687501 12.7,3.9687501"
       id="path1927"
       sodipodi:nodetypes="csc" />
    <path
       style="fill:none;fill-opacity:1;stroke:#000000;stroke-width:0.529167;stroke-linecap:round;stroke-linejoin:round;stop-color:#000000"
       d="m 10.583333,7.6729167 c 0,0 1.097178,-0.1207692 1.587501,0.2645833 C 12.544253,8.2309756 12.7,9.2604167 12.7,9.2604167"
       id="path1927-6"
       sodipodi:nodetypes="csc" />
    <circle
       style="fill:#ffffff;fill-opacity:1;stroke:none;stroke-width:0.529167;stroke-linecap:round;stroke-linejoin:round;stop-color:#000000"
       id="path2740"
       cx="10.054167"
       cy="6.0854168"
       r="0.26458332" />
    <circle
       style="fill:#000000;fill-opacity:1;stroke:none;stroke-width:0.529167;stroke-linecap:round;stroke-linejoin:round;stop-color:#000000;stroke-opacity:1"
       id="path2740-20"
       cx="5.2916665"
       cy="5.2916665"
       r="0.26458332" />
    <circle
       style="fill:#000000;fill-opacity:1;stroke:none;stroke-width:0.529167;stroke-linecap:round;stroke-linejoin:round;stroke-opacity:1;stop-color:#000000"
       id="path2740-20-2"
       cx="5.2916665"
       cy="7.9375"
       r="0.26458332" />
    <circle
       style="fill:#000000;fill-opacity:1;stroke:none;stroke-width:0.529167;stroke-linecap:round;stroke-linejoin:round;stroke-opacity:1;stop-color:#000000"
       id="path2740-20-1"
       cx="7.4083333"
       cy="4.7624998"
       r="0.26458332" />
    <circle
       style="fill:#000000;fill-opacity:1;stroke:none;stroke-width:0.529167;stroke-linecap:round;stroke-linejoin:round;stroke-opacity:1;stop-color:#000000"
       id="path2740-20-17"
       cx="7.4083333"
       cy="8.4666662"
       r="0.26458332" />
    <circle
       style="fill:#ffffff;fill-opacity:1;stroke:none;stroke-width:0.529167;stroke-linecap:round;stroke-linejoin:round;stop-color:#000000"
       id="path2740-2"
       cx="10.054167"
       cy="7.1437502"
       r="0.26458332" />
    <path
       style="fill:#ffffff;fill-opacity:1;stroke:#000000;stroke-width:0.52890208;stroke-linecap:round;stroke-linejoin:round;stop-color:#000000;stroke-opacity:1;stroke-dasharray:none"
       d="M 2.6458333,6.6145832 H 8.4666666"
       id="path5027" />
    <path
       style="fill:none;fill-opacity:1;stroke:#000000;stroke-width:0.528902;stroke-linecap:round;stroke-linejoin:round;stroke-dasharray:none;stroke-opacity:1;stop-color:#000000"
       d="m 7.9375,2.9104167 c 0,0 0.1115581,-0.723659 0,-1.0583334 C 7.7980523,1.4337404 7.14375,0.79375 7.14375,0.79375"
       id="path6579"
       sodipodi:nodetypes="cac" />
    <path
       style="fill:none;fill-opacity:1;stroke:#000000;stroke-width:0.528902;stroke-linecap:round;stroke-linejoin:round;stroke-dasharray:none;stroke-opacity:1;stop-color:#000000"
       d="m 5.5563823,2.910549 c 0,0 -0.3218091,-0.7228218 -0.5291666,-1.0583334 -0.2318328,-0.3751133 -0.79375,-1.05833332 -0.79375,-1.05833332"
       id="path6579-3"
       sodipodi:nodetypes="cac" />
    <path
       style="fill:none;fill-opacity:1;stroke:#000000;stroke-width:0.528902;stroke-linecap:round;stroke-linejoin:round;stroke-dasharray:none;stroke-opacity:1;stop-color:#000000"
       d="m 3.4395833,4.2333333 c 0,0 -0.6147248,-0.8300444 -1.0583333,-1.0583333 C 1.9042419,2.9295231 0.79375,2.9104167 0.79375,2.9104167"
       id="path6579-3-2"
       sodipodi:nodetypes="cac" />
    <path
       style="fill:none;fill-opacity:1;stroke:#000000;stroke-width:0.528902;stroke-linecap:round;stroke-linejoin:round;stroke-dasharray:none;stroke-opacity:1;stop-color:#000000"
       d="m 3.4395833,8.9958333 c 0,0 -0.6147248,0.8300436 -1.0583333,1.0583327 -0.4770081,0.245478 -1.58749993,0.264584 -1.58749993,0.264584"
       id="path6579-3-2-0"
       sodipodi:nodetypes="cac" />
    <path
       style="fill:none;fill-opacity:1;stroke:#000000;stroke-width:0.528902;stroke-linecap:round;stroke-linejoin:round;stroke-dasharray:none;stroke-opacity:1;stop-color:#000000"
       d="m 5.8208333,10.31875 c 0,0 -0.3218091,0.722821 -0.5291666,1.058333 -0.2318328,0.375113 -0.79375,1.058333 -0.79375,1.058333"
       id="path6579-3-5"
       sodipodi:nodetypes="cac" />
    <path
       style="fill:none;fill-opacity:1;stroke:#000000;stroke-width:0.528902;stroke-linecap:round;stroke-linejoin:round;stroke-dasharray:none;stroke-opacity:1;stop-color:#000000"
       d="m 7.9375,10.31875 c 0,0 0.1115581,0.723659 0,1.058333 -0.1394477,0.418343 -0.79375,1.058334 -0.79375,1.058334"
       id="path6579-0"
       sodipodi:nodetypes="cac" />
  </g>
</svg>
