<?xml version="1.0" encoding="UTF-8" standalone="no"?>
<!-- Created with Inkscape (http://www.inkscape.org/) -->

<svg
   width="50"
   height="50"
   viewBox="0 0 50 50"
   version="1.1"
   id="svg5"
   xml:space="preserve"
   sodipodi:docname="tree - normal.svg"
   inkscape:version="1.2.1 (9c6d41e410, 2022-07-14)"
   xmlns:inkscape="http://www.inkscape.org/namespaces/inkscape"
   xmlns:sodipodi="http://sodipodi.sourceforge.net/DTD/sodipodi-0.dtd"
   xmlns="http://www.w3.org/2000/svg"
   xmlns:svg="http://www.w3.org/2000/svg"><sodipodi:namedview
     id="namedview9"
     pagecolor="#ffffff"
     bordercolor="#666666"
     borderopacity="1.0"
     inkscape:showpageshadow="2"
     inkscape:pageopacity="0.0"
     inkscape:pagecheckerboard="0"
     inkscape:deskcolor="#d1d1d1"
     showgrid="false"
     inkscape:zoom="16.28"
     inkscape:cx="24.109337"
     inkscape:cy="25.030713"
     inkscape:window-width="1920"
     inkscape:window-height="1001"
     inkscape:window-x="-9"
     inkscape:window-y="-9"
     inkscape:window-maximized="1"
     inkscape:current-layer="svg5" /><defs
     id="defs2" /><g
     id="layer2"><path
       style="fill:#454307;fill-opacity:1;stroke:#232204;stroke-linecap:round;stroke-linejoin:round;stop-color:#000000;stroke-opacity:1"
       d="M 31.566193,9.1103072 C 28.363238,8.3239167 19.474181,8.9874771 17.324296,9.3676043 c -2.149885,0.3801273 -3.825074,2.7998757 -3.76504,4.1720077 0.06003,1.372132 -0.03069,6.659922 -0.578081,10.655358 -2.001522,4.716075 -2.654795,5.657055 -3.9339911,8.350616 l -4.232573,4.56962 -1.76739,0.121889 1.76739,0.914168 2.803448,-0.792279 c 1.435219,1.458445 1.299355,3.691189 2.6815581,4.570839 0.580582,-2.471999 0.114442,-4.158956 -0.182833,-5.972562 5.253412,-5.276066 6.55584,-5.436388 9.568288,-7.618064 l 1.097001,5.424061 -4.44895,5.119339 3.351949,1.523613 c 0.629204,1.034575 1.12411,1.71102 2.072113,3.595726 0.979142,0.778378 1.411493,0.135099 1.828335,-0.548501 -1.466349,-1.185915 -1.426612,-2.802141 -2.133058,-4.205171 0.384477,-2.684267 1.776814,-3.554388 2.681559,-5.302172 1.298593,0.290043 2.612636,0.604806 3.351948,0 0.352051,1.590135 0.730195,3.122864 1.645501,3.473837 1.905224,0.943657 2.165669,2.063541 0.853224,3.351948 -1.019724,1.794955 -0.382249,2.264149 -0.365667,3.230059 2.056762,-0.618656 2.452812,-2.233739 3.473837,-3.473837 1.564493,0.141452 2.90172,0.964702 3.778559,3.169114 -0.588078,-2.634008 -0.572908,-4.212333 -0.243778,-5.241228 -2.374777,-2.795661 -4.134132,-5.162847 -5.278197,-6.615913 3.004337,0.529456 6.028518,1.024183 9.483368,0.765241 1.392414,1.326106 2.526163,2.997097 3.230059,5.241227 0.316894,-1.357041 0.391073,-2.852776 1.462669,-3.778559 1.196941,0.34862 2.194846,1.095312 3.047225,2.133058 -0.452469,-1.117316 -0.770178,-2.234632 -0.426612,-3.351948 -3.557383,-1.476885 -6.07807,-5.718292 -9.019787,-8.836954 0,0 -1.713715,-2.479947 -2.230046,-4.233232 -0.516331,-1.753285 -0.08742,-5.058063 -0.542927,-6.157808 -0.455507,-1.099744 -1.58425,-3.7243993 -4.787204,-4.5107898 z"
       id="path1292" /><path
       style="fill:#c99d33;fill-opacity:1;stroke:#634e19;stroke-linecap:round;stroke-linejoin:round;stop-color:#000000;stroke-opacity:1"
       d="m 24.633307,10.611739 c 3.617094,-0.115176 9.684529,0.716085 9.812066,4.205171 0.127537,3.489086 -4.459038,3.938135 -8.044675,4.144226 -3.585637,0.206091 -10.713132,-0.308436 -10.909067,-4.022337 -0.195935,-3.713901 5.524582,-4.211884 9.141676,-4.32706 z"
       id="path576" /></g></svg>
